<svg width="120" height="120" viewBox="0 0 120 120" fill="none" xmlns="http://www.w3.org/2000/svg">
  <!-- Background Circle -->
  <circle cx="60" cy="60" r="55" fill="#3B82F6" stroke="#1E40AF" stroke-width="2"/>
  
  <!-- Money Symbol -->
  <path d="M45 35h30c8.284 0 15 6.716 15 15s-6.716 15-15 15H45c-8.284 0-15 6.716-15 15s6.716 15 15 15h30" 
        stroke="white" stroke-width="4" stroke-linecap="round" fill="none"/>
  
  <!-- Vertical line through S -->
  <line x1="60" y1="25" x2="60" y2="35" stroke="white" stroke-width="4" stroke-linecap="round"/>
  <line x1="60" y1="85" x2="60" y2="95" stroke="white" stroke-width="4" stroke-linecap="round"/>
  
  <!-- House Icon -->
  <path d="M25 75L35 65L45 75V85H25V75Z" fill="white" opacity="0.8"/>
  <path d="M75 75L85 65L95 75V85H75V75Z" fill="white" opacity="0.8"/>
  
  <!-- Connecting dots -->
  <circle cx="20" cy="70" r="2" fill="white" opacity="0.6"/>
  <circle cx="100" cy="70" r="2" fill="white" opacity="0.6"/>
</svg>